<svg width="35" height="10" viewBox="0 0 35 10" fill="none" xmlns="http://www.w3.org/2000/svg">
<path d="M7.5 5C7.5 6.65685 6.38071 8 5 8C3.61929 8 2.5 6.65685 2.5 5C2.5 3.34315 3.61929 2 5 2C6.38071 2 7.5 3.34315 7.5 5Z" fill="#CADB4E"/>
<path d="M31.5 4.5C31.5 5.88071 30.3807 7 29 7C27.6193 7 26.5 5.88071 26.5 4.5C26.5 3.11929 27.6193 2 29 2C30.3807 2 31.5 3.11929 31.5 4.5Z" fill="#CADB4E"/>
<path d="M5.5293 6.3457C5.96289 6.3457 6.3125 6.19922 6.57812 5.90625C6.83984 5.60547 6.9707 5.21289 6.9707 4.72852C6.9707 4.23242 6.83984 3.83594 6.57812 3.53906C6.30859 3.24219 5.95898 3.09375 5.5293 3.09375C5.09961 3.09375 4.74805 3.24219 4.47461 3.53906C4.21289 3.83594 4.08203 4.23242 4.08203 4.72852C4.08203 5.21289 4.21289 5.60547 4.47461 5.90625C4.74414 6.19922 5.0957 6.3457 5.5293 6.3457ZM10.1172 4.72852C10.1172 5.36133 10.0039 5.94531 9.77734 6.48047C9.54297 7.03516 9.21875 7.51953 8.80469 7.93359C8.38281 8.34375 7.88867 8.66406 7.32227 8.89453C6.75586 9.11719 6.1582 9.22852 5.5293 9.22852C4.89258 9.22852 4.29297 9.11719 3.73047 8.89453C3.18359 8.67188 2.6875 8.34766 2.24219 7.92188C1.8125 7.48828 1.48828 7.01172 1.26953 6.49219C1.05469 5.95703 0.947266 5.36914 0.947266 4.72852C0.947266 4.08789 1.05469 3.5 1.26953 2.96484C1.49609 2.43359 1.82031 1.95312 2.24219 1.52344C2.67188 1.10547 3.16406 0.78125 3.71875 0.550781C4.27734 0.335938 4.88086 0.228516 5.5293 0.228516C6.16992 0.228516 6.77148 0.335938 7.33398 0.550781C7.89258 0.777344 8.38867 1.10156 8.82227 1.52344C9.23633 1.94531 9.55859 2.42578 9.78906 2.96484C10.0078 3.50781 10.1172 4.0957 10.1172 4.72852Z" fill="black"/>
<path d="M12.2125 9V5.20898L9.34141 0.421875H12.857L13.5777 2.08594C13.6793 2.33594 13.7555 2.55273 13.8062 2.73633C13.8141 2.75195 13.818 2.76367 13.818 2.77148C13.8219 2.7793 13.8258 2.78711 13.8297 2.79492C13.8609 2.67773 13.9332 2.47852 14.0465 2.19727C14.0621 2.16602 14.0719 2.14258 14.0758 2.12695C14.0836 2.10742 14.0895 2.09375 14.0934 2.08594L14.8023 0.421875H18.2945L15.318 5.20898V9H12.2125Z" fill="black"/>
<path d="M19.0703 9V0.421875H24.8066V2.74805H22.1582V3.74414H24.5547V5.94141H22.1582V9H19.0703Z" fill="black"/>
<path d="M28.9258 6.38672C29.6289 6.36719 30.1387 6.23047 30.4551 5.97656C30.7715 5.70703 30.9297 5.28711 30.9297 4.7168C30.9297 4.16211 30.7793 3.74609 30.4785 3.46875C30.166 3.19531 29.6934 3.05859 29.0605 3.05859H28.9258V6.38672ZM25.8672 9V0.421875H28.3633C28.7578 0.421875 29.1133 0.431641 29.4297 0.451172C29.75 0.470703 30.0703 0.503906 30.3906 0.550781C30.9414 0.636719 31.3984 0.773438 31.7617 0.960938C32.5078 1.35547 33.0801 1.87109 33.4785 2.50781C33.8691 3.15625 34.0645 3.89258 34.0645 4.7168C34.0645 5.54492 33.8691 6.27734 33.4785 6.91406C33.0801 7.54688 32.5078 8.0625 31.7617 8.46094C31.4102 8.64844 30.9492 8.7832 30.3789 8.86523C29.8047 8.95508 29.0566 9 28.1348 9H25.8672Z" fill="black"/>
</svg>
